<svg width="86" height="87" xmlns="http://www.w3.org/2000/svg" xmlns:xlink="http://www.w3.org/1999/xlink" xml:space="preserve" overflow="hidden"><g transform="translate(-661 -430)"><path d="M46.4185 67.1875C46.4185 68.6715 45.2153 69.875 43.731 69.875L8.0625 69.875C3.6097 69.875-1.19349e-15 66.2652 0 61.8125L0 8.0625C-2.38698e-15 3.6097 3.6097-1.19349e-15 8.0625 0L61.8125 0C66.2652-1.19349e-15 69.875 3.6097 69.875 8.0625L69.875 43.731C69.875 45.2153 68.6715 46.4185 67.1875 46.4185 65.7035 46.4185 64.5 45.2153 64.5 43.731L64.5 8.0625C64.5 6.57825 63.2965 5.375 61.8125 5.375L8.0625 5.375C6.57825 5.375 5.375 6.57825 5.375 8.0625L5.375 61.8125C5.375 63.2965 6.57825 64.5 8.0625 64.5L43.731 64.5C45.2153 64.5 46.4185 65.7035 46.4185 67.1875" fill="#CFBEF7" fill-rule="evenodd" transform="matrix(1 0 0 1.01163 661 430)"/><path d="M86 83.3125C86 84.7965 84.7965 86 83.3125 86L56.4375 86C54.9535 86 53.75 84.7965 53.75 83.3125 53.75 81.8285 54.9535 80.625 56.4375 80.625L76.8249 80.625 33.0347 36.8403C31.9839 35.7894 31.9839 34.0856 33.0347 33.0347 34.0856 31.9839 35.7894 31.9839 36.8403 33.0347L80.625 76.8249 80.625 56.4375C80.625 54.9535 81.8285 53.75 83.3125 53.75 84.7965 53.75 86 54.9535 86 56.4375Z" fill="#CFBEF7" fill-rule="evenodd" transform="matrix(1 0 0 1.01163 661 430)"/></g></svg>