<svg width="72" height="72" xmlns="http://www.w3.org/2000/svg" xmlns:xlink="http://www.w3.org/1999/xlink" xml:space="preserve" overflow="hidden"><g transform="translate(-678 -231)"><path d="M682.5 242.25C682.5 238.522 685.522 235.5 689.25 235.5L693.75 235.5C697.478 235.5 700.5 238.522 700.5 242.25L719.103 242.25C720.346 240.098 723.098 239.36 725.25 240.603 727.402 241.846 728.14 244.598 726.897 246.75 725.655 248.902 722.902 249.64 720.75 248.397 720.066 248.002 719.498 247.434 719.103 246.75L710.058 246.75C710.868 247.56 711.588 248.465 712.236 249.473 715.107 253.936 716.25 260.065 716.25 267 716.25 275.969 717.406 280.914 719.458 283.65 721.06 285.792 723.486 286.895 727.5 287.178 727.54 283.478 730.55 280.5 734.25 280.5L738.75 280.5C742.478 280.5 745.5 283.522 745.5 287.25L745.5 291.75C745.5 295.478 742.478 298.5 738.75 298.5L734.25 298.5C730.522 298.5 727.5 295.478 727.5 291.75L708.897 291.75C707.654 293.902 704.902 294.64 702.75 293.397 700.598 292.155 699.86 289.402 701.103 287.25 702.345 285.098 705.098 284.36 707.25 285.603 707.934 285.998 708.502 286.566 708.897 287.25L716.596 287.25C716.335 286.962 716.088 286.661 715.854 286.35 712.844 282.331 711.75 276.031 711.75 267 711.75 260.43 710.643 255.314 708.451 251.902 706.696 249.18 704.167 247.402 700.5 246.898 700.419 250.568 697.421 253.501 693.75 253.5L689.25 253.5C685.522 253.5 682.5 250.478 682.5 246.75ZM689.25 240C688.007 240 687 241.007 687 242.25L687 246.75C687 247.993 688.007 249 689.25 249L693.75 249C694.993 249 696 247.993 696 246.75L696 242.25C696 241.007 694.993 240 693.75 240ZM734.25 285C733.008 285 732 286.008 732 287.25L732 291.75C732 292.992 733.008 294 734.25 294L738.75 294C739.992 294 741 292.992 741 291.75L741 287.25C741 286.008 739.992 285 738.75 285Z" fill="#D49B8F" fill-rule="evenodd"/></g></svg>