<svg width="72" height="73" xmlns="http://www.w3.org/2000/svg" xmlns:xlink="http://www.w3.org/1999/xlink" xml:space="preserve" overflow="hidden"><defs><clipPath id="clip0"><rect x="897" y="430" width="72" height="73"/></clipPath></defs><g clip-path="url(#clip0)" transform="translate(-897 -430)"><path d="M0 47.25C-1.9984e-15 43.5221 3.02208 40.5 6.75 40.5L11.25 40.5C14.9779 40.5 18 43.5221 18 47.25L18 51.75C18 55.4778 14.9779 58.5 11.25 58.5L6.75 58.5C3.02208 58.5 -9.99203e-16 55.4778 0 51.75ZM6.75 45C5.50737 45 4.5 46.0075 4.5 47.25L4.5 51.75C4.5 52.9925 5.50737 54 6.75 54L11.25 54C12.4926 54 13.5 52.9925 13.5 51.75L13.5 47.25C13.5 46.0075 12.4926 45 11.25 45ZM54 47.25C54 43.5221 57.0222 40.5 60.75 40.5L65.25 40.5C68.9778 40.5 72 43.5221 72 47.25L72 51.75C72 55.4778 68.9778 58.5 65.25 58.5L60.75 58.5C57.0222 58.5 54 55.4778 54 51.75ZM60.75 45C59.5075 45 58.5 46.0075 58.5 47.25L58.5 51.75C58.5 52.9925 59.5075 54 60.75 54L65.25 54C66.4924 54 67.5 52.9925 67.5 51.75L67.5 47.25C67.5 46.0075 66.4924 45 65.25 45ZM27 20.25C27 16.5221 30.0221 13.5 33.75 13.5L38.25 13.5C41.9779 13.5 45 16.5221 45 20.25L45 24.75C45 28.4779 41.9779 31.5 38.25 31.5L33.75 31.5C30.0221 31.5 27 28.4779 27 24.75ZM33.75 18C32.5074 18 31.5 19.0074 31.5 20.25L31.5 24.75C31.5 25.9926 32.5074 27 33.75 27L38.25 27C39.4926 27 40.5 25.9926 40.5 24.75L40.5 20.25C40.5 19.0074 39.4926 18 38.25 18Z" fill="#758A69" fill-rule="evenodd" transform="matrix(1 0 0 1.01389 897 430)"/><path d="M27 20.25 8.397 20.25C7.15437 18.0977 4.4022 17.3602 2.24989 18.6029 0.097569 19.8455-0.639868 22.5977 0.602771 24.75 1.84541 26.9023 4.59756 27.6398 6.74986 26.3971 7.43396 26.0022 8.00204 25.4341 8.397 24.75L20.403 24.75C14.608 28.4085 10.2774 33.9811 8.163 40.5L11.25 40.5C11.8035 40.5 12.348 40.5675 12.861 40.6935 15.3819 34.0945 20.5945 28.8819 27.1935 26.361 27.0646 25.8337 26.9996 25.2928 27 24.75ZM44.8065 26.361C44.9356 25.8337 45.0005 25.2928 45 24.75L45 20.25 63.603 20.25C64.8455 18.0977 67.5976 17.3602 69.75 18.6029 71.9024 19.8455 72.6399 22.5977 71.397 24.75 70.1545 26.9023 67.4024 27.6398 65.25 26.3971 64.566 26.0022 63.9981 25.4341 63.603 24.75L51.597 24.75C57.3921 28.4085 61.7225 33.9811 63.837 40.5L60.75 40.5C60.1965 40.5 59.6565 40.5675 59.139 40.6935 56.6181 34.0945 51.4053 28.8819 44.8065 26.361Z" fill="#758A69" transform="matrix(1 0 0 1.01389 897 430)"/></g></svg>