<svg width="73" height="73" xmlns="http://www.w3.org/2000/svg" xmlns:xlink="http://www.w3.org/1999/xlink" xml:space="preserve" overflow="hidden"><g transform="translate(-1076 -360)"><path d="M1146.85 373.564C1148.15 374.083 1149 375.341 1149 376.74L1149 416.26C1149 417.66 1148.15 418.917 1146.85 419.436L1113.77 432.667C1112.95 432.993 1112.04 432.993 1111.23 432.667L1078.15 419.436C1076.85 418.916 1076 417.658 1076 416.26L1076 376.74C1076 375.342 1076.85 374.084 1078.15 373.564L1109.96 360.84 1109.98 360.835 1111.23 360.333C1112.04 360.006 1112.96 360.006 1113.77 360.333L1115.02 360.835 1115.04 360.84 1146.85 373.564ZM1140.58 375.969 1112.5 387.202 1084.42 375.969 1080.56 377.515 1080.56 379.34 1110.22 391.203 1110.22 427.347 1112.5 428.26 1114.78 427.347 1114.78 391.207 1144.44 379.345 1144.44 377.52 1140.58 375.973Z" fill="#C0C3DC" fill-rule="evenodd"/></g></svg>