<svg width="74" height="74" xmlns="http://www.w3.org/2000/svg" xmlns:xlink="http://www.w3.org/1999/xlink" xml:space="preserve" overflow="hidden"><g transform="translate(-1039 -231)"><path d="M1110.82 244.75C1112.13 245.276 1113 246.551 1113 247.969L1113 288.031C1113 289.449 1112.13 290.724 1110.82 291.25L1077.29 304.662C1076.46 304.993 1075.54 304.993 1074.71 304.662L1041.18 291.25C1039.86 290.723 1039 289.448 1039 288.031L1039 247.969C1039 246.552 1039.86 245.277 1041.18 244.75L1073.42 231.851 1073.44 231.846 1074.71 231.338C1075.54 231.006 1076.46 231.006 1077.29 231.338L1078.56 231.846 1078.58 231.851 1110.82 244.75ZM1104.46 247.188 1076 258.574 1047.54 247.188 1043.62 248.755 1043.62 250.605 1073.69 262.63 1073.69 299.27 1076 300.195 1078.31 299.27 1078.31 262.635 1108.38 250.61 1108.38 248.76 1104.46 247.192Z" fill="#2A9077" fill-rule="evenodd"/></g></svg>