<svg width="107" height="107" xmlns="http://www.w3.org/2000/svg" xmlns:xlink="http://www.w3.org/1999/xlink" xml:space="preserve" overflow="hidden"><g transform="translate(-632 -352)"><path d="M638.688 365.375C638.688 361.682 641.682 358.688 645.375 358.688L658.75 358.688C662.443 358.688 665.438 361.682 665.438 365.375L665.438 378.75C665.438 382.443 662.443 385.438 658.75 385.438L645.375 385.438C641.682 385.438 638.688 382.443 638.688 378.75ZM672.125 365.375C672.125 361.682 675.119 358.688 678.812 358.688L692.188 358.688C695.881 358.688 698.875 361.682 698.875 365.375L698.875 378.75C698.875 382.443 695.881 385.438 692.188 385.438L678.812 385.438C675.119 385.438 672.125 382.443 672.125 378.75ZM705.562 365.375C705.562 361.682 708.557 358.688 712.25 358.688L725.625 358.688C729.318 358.688 732.312 361.682 732.312 365.375L732.312 378.75C732.312 382.443 729.318 385.438 725.625 385.438L712.25 385.438C708.557 385.438 705.562 382.443 705.562 378.75ZM638.688 398.812C638.688 395.119 641.682 392.125 645.375 392.125L658.75 392.125C662.443 392.125 665.438 395.119 665.438 398.812L665.438 412.188C665.438 415.881 662.443 418.875 658.75 418.875L645.375 418.875C641.682 418.875 638.688 415.881 638.688 412.188ZM672.125 398.812C672.125 395.119 675.119 392.125 678.812 392.125L692.188 392.125C695.881 392.125 698.875 395.119 698.875 398.812L698.875 412.188C698.875 415.881 695.881 418.875 692.188 418.875L678.812 418.875C675.119 418.875 672.125 415.881 672.125 412.188ZM705.562 398.812C705.562 395.119 708.557 392.125 712.25 392.125L725.625 392.125C729.318 392.125 732.312 395.119 732.312 398.812L732.312 412.188C732.312 415.881 729.318 418.875 725.625 418.875L712.25 418.875C708.557 418.875 705.562 415.881 705.562 412.188ZM638.688 432.25C638.688 428.556 641.682 425.562 645.375 425.562L658.75 425.562C662.443 425.562 665.438 428.556 665.438 432.25L665.438 445.625C665.438 449.319 662.443 452.312 658.75 452.312L645.375 452.312C641.682 452.312 638.688 449.319 638.688 445.625ZM672.125 432.25C672.125 428.556 675.119 425.562 678.812 425.562L692.188 425.562C695.881 425.562 698.875 428.556 698.875 432.25L698.875 445.625C698.875 449.319 695.881 452.312 692.188 452.312L678.812 452.312C675.119 452.312 672.125 449.319 672.125 445.625ZM705.562 432.25C705.562 428.556 708.557 425.562 712.25 425.562L725.625 425.562C729.318 425.562 732.312 428.556 732.312 432.25L732.312 445.625C732.312 449.319 729.318 452.312 725.625 452.312L712.25 452.312C708.557 452.312 705.562 449.319 705.562 445.625Z"/></g></svg>